<svg width="164" height="233" viewBox="0 0 164 233" fill="none" xmlns="http://www.w3.org/2000/svg">
  <path
    d="M141.97 126.124C145.965 129.428 143.718 132.101 141.149 134.821C123.905 153.083 106.645 171.329 89.4642 189.65C80.0226 199.719 70.8086 210.002 61.2751 219.981C59.8436 221.48 57.2233 221.842 55.1529 222.73C55.0286 220.403 54.254 217.881 54.8844 215.78C59.4057 200.716 64.2126 185.737 69.0678 169.998C70.7466 166.147 68.1957 166.909 66.825 166.898C59.5561 166.838 52.2864 166.88 45.017 166.886C45.017 166.886 45.0288 166.969 44.8602 166.734C44.156 166.205 43.6203 165.912 43.0847 165.62C43.2407 163.378 43.0049 161.021 43.6259 158.917C45.5297 152.467 47.7623 146.114 49.9717 139.122C50.0764 138.521 50.0718 138.028 50.0718 138.028C50.0718 138.028 50.001 138.022 50.2614 137.805C50.776 136.514 51.0302 135.439 51.427 133.762C43.3688 133.762 35.7146 133.762 28.0604 133.762C24.7762 132.125 24.2326 129.455 25.2695 126.233C29.6402 112.651 34.073 99.0893 38.3754 85.4861C39.5541 81.7592 41.7071 80.3664 45.7056 80.3909C71.1905 80.5474 96.6767 80.4448 122.162 80.4863C129.927 80.4989 130.877 81.969 128.449 89.5C124.885 100.558 121.35 111.625 117.522 123.379C118.281 124.751 119.306 125.997 120.361 126.023C127.56 126.2 134.766 126.121 141.97 126.124ZM33.9349 123.727C34.2923 124.175 34.6496 124.623 35.9293 125.249C42.6149 125.187 49.3005 125.125 56.5035 125.234C56.6832 125.208 56.8629 125.181 57.5781 125.547C61.2956 126.644 60.5837 129.293 59.7373 131.902C56.907 140.625 54.0304 149.333 51.0335 158.904C52.4679 159.265 53.8961 159.907 55.3377 159.938C62.5477 160.097 69.7611 160.096 77.2907 160.712C77.3953 162.569 77.9742 164.554 77.5123 166.256C76.2992 170.729 74.5811 175.062 73.1589 179.482C70.8973 186.509 68.7125 193.561 66.4161 200.854C70.8564 200.576 131.374 136.933 132.456 132.066C126.598 132.066 120.767 132.18 114.943 132.029C110.552 131.916 109.329 130.129 110.574 125.902C112.261 120.169 114.079 114.475 115.854 108.768C118.041 101.738 120.242 94.7112 122.501 87.4771C121.107 87.2726 120.459 87.0945 119.81 87.094C96.3201 87.0768 72.8301 87.1325 49.3412 87.0025C46.376 86.9861 45.2098 88.2712 44.4306 90.7599C41.0571 101.535 37.6139 112.288 33.9349 123.727Z"
    fill="#F8FAFC" />
  <path
    d="M41.0159 73.9343C40.5 71.5 39.4463 67.8732 44.4463 67.8426C55.7394 67.7735 67.033 67.7914 78.9792 67.6847C79.7876 67.5222 80.3444 67.5727 80.5 67.4995C86.8152 67.5604 92.7291 67.4977 99.7724 67.4717C100.683 67.3266 101.318 67.5298 101.5 67.4717C104.186 67.527 106.419 67.3208 109.803 67.3195C110.674 67.206 111.525 67.2535 111.697 67.1967C116.317 67.2223 120.261 67.05 124.877 67.1964C129.195 67.3333 128 69 127.65 73.5574C98.3534 73.8972 69.6846 73.9157 41.0159 73.9343Z"
    fill="#FAFCFD" />
  <path
    d="M127.939 54.212C128.33 55.6504 128.342 57.7643 128 59C127.786 59.772 126.575 59.9027 125.306 59.9064C98.2511 59.9869 71.1963 59.9565 44.1415 59.9785C40.0928 59.9818 41 58.5 41.3067 54.3293C67.9657 54.0387 93.9837 54.0241 120.002 54.0095C120.443 54.0951 121.471 53.9456 122.5 54.0096C123.261 53.9422 122.849 54.1315 123.023 54.0856C125 53.9999 125.319 54.0589 127 54.0856C127.617 54.019 127.939 54.212 127.939 54.212Z"
    fill="#F6F9FB" />
  <path
    d="M65.011 22.0498C76.1559 22.0498 87.3009 22.0498 98.8667 22.0498C98.8667 24.4984 98.8667 26.5426 98.8667 29.0682C89.9696 29.0682 81.3382 29.2479 72.7203 28.9863C68.8825 28.8698 67.7711 30.2158 68.0019 33.8726C68.2739 38.1837 68.2524 42.5435 67.8936 46.8435C67.8012 47.9513 66.1075 49.4345 64.8844 49.7652C64.0289 49.9965 61.7785 48.5812 61.763 47.8666C61.5951 40.0858 61.71 32.2975 61.8787 24.514C61.8919 23.9078 62.8893 23.323 63.9592 22.4849C64.6631 22.1776 64.837 22.1137 65.011 22.0498Z"
    fill="#F1F6F8" />
  <path
    d="M51 158.993C53.8589 150.279 56.907 140.625 59.7373 131.902C60.5837 129.294 61.2956 126.645 57.2222 125.164C56.573 124.875 56.2795 124.969 55.9861 125.063C49.3005 125.126 42.6149 125.188 35.4604 124.873C34.7263 124.014 34.4612 123.532 34.196 123.049C37.6138 112.288 41.0571 101.535 44.4306 90.7604C45.2097 88.2717 46.3759 86.9867 49.3412 87.0031C72.8301 87.1331 96.32 87.0774 119.81 87.0946C120.459 87.0951 121.107 87.2732 122.501 87.4777C120.241 94.7118 118.041 101.738 115.854 108.769C114.079 114.475 112.261 120.17 110.574 125.902C109.329 130.129 110.552 131.916 114.943 132.03C120.767 132.181 126.598 132.067 132.456 132.067C131.374 136.933 70.8564 200.577 66.4161 200.854C68.7125 193.561 70.8972 186.509 73.1589 179.482C74.5811 175.063 76.2992 170.73 77.5123 166.257C77.9741 164.554 77.5231 163.469 77 161C73.1715 160.225 67.9079 160.298 64.5 160.1C59.4811 159.809 55 160.1 51 158.993Z"
    fill="#20769C" />
</svg>